<svg width="500" height="500" viewBox="0 0 500 500" fill="none" xmlns="http://www.w3.org/2000/svg">
<circle cx="250" cy="250" r="250" fill="#4F72FF"/>
<path d="M116.6 325.875C112.283 325.875 109.192 324.942 107.325 323.075C105.458 321.092 104.525 317.417 104.525 312.05C104.525 308.433 104.875 303.825 105.575 298.225C106.392 292.508 107.675 284.692 109.425 274.775C112.458 256.458 114.85 240.592 116.6 227.175C117.65 218.775 118.175 211.775 118.175 206.175C118.175 200.925 116.25 198.3 112.4 198.3C109.367 198.3 105.692 199.875 101.375 203.025C97.175 206.058 92.5083 210.958 87.375 217.725C85.7417 219.942 83.9333 221.05 81.95 221.05C80.3167 221.05 78.8583 220.292 77.575 218.775C76.4083 217.142 75.825 215.333 75.825 213.35C75.825 211.483 76.175 209.617 76.875 207.75C77.6917 205.767 78.975 203.55 80.725 201.1C86.325 193.283 92.5667 187.275 99.45 183.075C106.333 178.758 113.217 176.6 120.1 176.6C126.517 176.6 131.417 178.642 134.8 182.725C138.3 186.808 140.05 192.758 140.05 200.575C140.05 203.725 139.758 207.458 139.175 211.775C138.592 215.975 138.067 219.417 137.6 222.1C137.133 224.783 136.783 226.65 136.55 227.7C143.2 208.683 150.667 195.442 158.95 187.975C167.233 180.392 176.333 176.6 186.25 176.6C193.833 176.6 199.783 179.283 204.1 184.65C208.533 190.017 210.75 197.6 210.75 207.4C210.75 211.25 210.225 216.033 209.175 221.75C215.008 205.65 221.833 194.1 229.65 187.1C237.467 180.1 246.45 176.6 256.6 176.6C264.767 176.6 271.008 179.225 275.325 184.475C279.758 189.725 281.975 197.075 281.975 206.525C281.975 211.658 281.217 217.9 279.7 225.25L269.025 275.3C267.858 281.133 267.275 286.15 267.275 290.35C267.275 295.25 268.383 298.925 270.6 301.375C272.933 303.825 276.142 305.05 280.225 305.05C284.075 305.05 287.808 303.767 291.425 301.2C295.158 298.633 299.533 294.375 304.55 288.425C305.95 286.792 307.525 285.975 309.275 285.975C310.792 285.975 311.958 286.675 312.775 288.075C313.708 289.475 314.175 291.4 314.175 293.85C314.175 298.4 313.067 302.017 310.85 304.7C304.783 312.05 298.775 317.417 292.825 320.8C286.875 324.183 280.633 325.875 274.1 325.875C264.183 325.875 256.425 322.958 250.825 317.125C245.225 311.175 242.425 303.242 242.425 293.325C242.425 286.442 243.825 276.467 246.625 263.4L253.625 231.375C253.858 230.325 254.267 228.458 254.85 225.775C255.433 223.092 255.9 220.583 256.25 218.25C256.6 215.8 256.775 213.408 256.775 211.075C256.775 206.992 255.958 203.958 254.325 201.975C252.808 199.875 250.592 198.825 247.675 198.825C242.192 198.825 236.417 202.383 230.35 209.5C224.4 216.5 218.683 228.167 213.2 244.5C207.833 260.833 203.458 282.067 200.075 308.2C199.258 315.2 197.8 319.925 195.7 322.375C193.717 324.708 190.45 325.875 185.9 325.875C181.933 325.875 179.017 324.942 177.15 323.075C175.4 321.208 174.525 317.708 174.525 312.575C174.525 307.792 175.167 301.55 176.45 293.85C177.733 286.033 179.367 276.875 181.35 266.375C186.717 238.142 189.4 219.942 189.4 211.775C189.4 207.342 188.525 204.075 186.775 201.975C185.142 199.875 182.633 198.825 179.25 198.825C173.533 198.825 167.642 202.092 161.575 208.625C155.508 215.042 149.558 226.533 143.725 243.1C138.008 259.55 133.225 281.833 129.375 309.95C128.558 315.9 127.333 320.042 125.7 322.375C124.183 324.708 121.15 325.875 116.6 325.875ZM370.949 325.875C357.065 325.875 344.99 323.367 334.724 318.35C324.457 313.217 316.582 305.983 311.099 296.65C305.615 287.317 302.874 276.467 302.874 264.1C302.874 246.95 306.082 231.725 312.499 218.425C319.032 205.125 327.84 194.858 338.924 187.625C350.007 180.275 362.315 176.6 375.849 176.6C388.449 176.6 398.016 179.867 404.549 186.4C411.082 192.817 414.349 201.333 414.349 211.95C414.349 219.067 413.066 224.783 410.499 229.1C408.049 233.417 404.491 235.575 399.824 235.575C396.557 235.575 393.99 234.817 392.124 233.3C390.257 231.783 389.324 229.567 389.324 226.65C389.324 225.6 389.557 223.675 390.024 220.875C390.724 217.375 391.074 214.575 391.074 212.475C391.074 201.858 385.415 196.55 374.099 196.55C366.399 196.55 359.049 199.058 352.049 204.075C345.049 209.092 339.39 216.5 335.074 226.3C330.757 235.983 328.599 247.533 328.599 260.95C328.599 274.95 332.507 285.8 340.324 293.5C348.14 301.083 359.69 304.875 374.974 304.875C382.557 304.875 390.199 303.942 397.899 302.075C405.716 300.092 414.349 297.117 423.799 293.15C425.549 292.45 427.007 292.1 428.174 292.1C430.041 292.1 431.441 292.8 432.374 294.2C433.307 295.6 433.774 297.408 433.774 299.625C433.774 306.742 429.924 311.992 422.224 315.375C413.94 318.992 405.307 321.675 396.324 323.425C387.457 325.058 378.999 325.875 370.949 325.875Z" fill="white"/>
</svg>
